<?xml version="1.0" encoding="UTF-8"?>
<svg version="1.0" x="0px" y="0px" xmlns="http://www.w3.org/2000/svg">
    <title>Icon SVG Symbol Library</title>
<symbol id="symbol-checked" viewBox="0 0 512 512" xmlns="http://www.w3.org/2000/svg">
    <path fill="var(--color-secondary)" d="m370 85.2l-45.1 55.4c-7.4 9.1-6 22.5 3.1 29.9l14.8 12c9.1 7.4 10.5 20.8 3.1 29.9l-125 153.1c-7.9 9.7-22.5 10.5-31.4 1.6l-81.5-81.4c-8.3-8.3-21.7-8.3-30 0l-15 15 128.9 128.7c8.9 8.9 23.6 8.1 31.5-1.7l224.5-278c0.5-0.6 0.4-1.4-0.2-1.9l-77.7-62.6z"/>
    <path fill="var(--color-black)" d="m208.5 454.1c-2.1 0-4.1-0.8-5.7-2.3l-145.5-145.4c-1.5-1.5-2.3-3.5-2.3-5.7 0-2.1 0.8-4.2 2.3-5.7l23.8-23.8c3.1-3.1 8.2-3.1 11.3 0s3.1 8.2 0 11.3l-18.1 18.1 133.6 133.4 229.6-284.2-48.7-39.3c-3.4-2.8-4-7.8-1.2-11.3 2.8-3.4 7.8-4 11.3-1.2l54.9 44.3c1.7 1.3 2.7 3.3 2.9 5.4s-0.4 4.2-1.7 5.9l-240.2 297.5c-1.4 1.8-3.5 2.8-5.8 3h-0.5zm-8.2-151c-2.1 0-4.1-0.8-5.7-2.3l-60.3-60.2-18.2 18.2c-3.1 3.1-8.2 3.1-11.3 0s-3.1-8.2 0-11.3l23.9-23.9c3.1-3.1 8.2-3.1 11.3 0l59.7 59.6 164-202.9c2.8-3.4 7.8-4 11.3-1.2 3.4 2.8 4 7.8 1.2 11.3l-169.6 209.7c-1.4 1.8-3.5 2.8-5.8 3h-0.5z"/>
    <path fill="var(--color-black)" d="m118.5 435.6c0 4.4-3.6 8-8 8h-65c-4.4 0-8-3.6-8-8s3.6-8 8-8h65c4.4 0 8 3.6 8 8zm-3-161c0-4.4-3.6-8-8-8h-86.9c-4.4 0-8 3.6-8 8s3.6 8 8 8h86.8c4.5 0 8.1-3.5 8.1-8zm57.5-230.2c0 5-4.1 9-9 9s-9-4.1-9-9 4.1-9 9-9 9 4 9 9zm30 0c0 5-4.1 9-9 9s-9-4.1-9-9 4.1-9 9-9 9 4 9 9zm11.9 0c0-5 4.1-9 9-9s9 4.1 9 9-4.1 9-9 9-9-4-9-9zm-81.9-8h-87.5c-4.4 0-8 3.6-8 8v177.6c0 4.4 3.6 8 8 8s8-3.6 8-8v-169.6h79.5c4.4 0 8-3.6 8-8s-3.6-8-8-8zm120.4 16h87.6c4.4 0 8-3.6 8-8s-3.6-8-8-8h-87.6c-4.4 0-8 3.6-8 8s3.6 8 8 8zm234 415.2h-262.4c-4.4 0-8 3.6-8 8s3.6 8 8 8h262.4c4.4 0 8-3.6 8-8s-3.6-8-8-8zm0-40h-195.8c-4.4 0-8 3.6-8 8s3.6 8 8 8h195.8c4.4 0 8-3.6 8-8s-3.6-8-8-8zm-154.4-32c0 4.4 3.6 8 8 8h146.4c4.4 0 8-3.6 8-8s-3.6-8-8-8h-146.4c-4.5 0-8 3.6-8 8z"/><g>
    <path fill="var(--color-tertiary)" d="m87.5 99.8c-8.4 0-15.2-6.8-15.2-15.2s6.8-15.2 15.2-15.2 15.2 6.8 15.2 15.2-6.8 15.2-15.2 15.2zm65.2-15.2c0-8.4-6.8-15.2-15.2-15.2s-15.2 6.8-15.2 15.2 6.8 15.2 15.2 15.2 15.2-6.8 15.2-15.2zm50 0c0-8.4-6.8-15.2-15.2-15.2s-15.2 6.8-15.2 15.2 6.8 15.2 15.2 15.2 15.2-6.8 15.2-15.2zm-50 50c0-8.4-6.8-15.2-15.2-15.2s-15.2 6.8-15.2 15.2 6.8 15.2 15.2 15.2 15.2-6.8 15.2-15.2zm-50 0c0-8.4-6.8-15.2-15.2-15.2s-15.2 6.8-15.2 15.2 6.8 15.2 15.2 15.2 15.2-6.8 15.2-15.2zm0 50c0-8.4-6.8-15.2-15.2-15.2s-15.2 6.8-15.2 15.2 6.8 15.2 15.2 15.2 15.2-6.8 15.2-15.2z"/>
    <path fill="var(--color-black)" d="M487.4,235.2v125.1H362.3L487.4,235.2z"/></g>
</symbol>

</svg>